HIERARCHY
ROOT Hips
{
	OFFSET 0.000000 0.000000 0.000000
	CHANNELS 6 Xposition Yposition Zposition Zrotation Yrotation Xrotation 
	JOINT LHipJoint
	{
		OFFSET 0.000000 0.000000 0.000000
		CHANNELS 3 Zrotation Yrotation Xrotation
		JOINT LeftUpLeg
		{
			OFFSET 1.363060 -1.794630 0.839290
			CHANNELS 3 Zrotation Yrotation Xrotation
			JOINT LeftLeg
			{
				OFFSET 2.448110 -6.726130 0.000000
				CHANNELS 3 Zrotation Yrotation Xrotation
				JOINT LeftFoot
				{
					OFFSET 2.562200 -7.039590 0.000000
					CHANNELS 3 Zrotation Yrotation Xrotation
					JOINT LeftToeBase
					{
						OFFSET 0.157640 -0.433110 2.322550
						CHANNELS 3 Zrotation Yrotation Xrotation
						End Site
						{
							OFFSET 0.000000 0.000000 0.000000
						}
					}
				}
			}
		}
	}
	JOINT RHipJoint
	{
		OFFSET 0.000000 0.000000 0.000000
		CHANNELS 3 Zrotation Yrotation Xrotation
		JOINT RightUpLeg
		{
			OFFSET -1.305520 -1.794630 0.839290
			CHANNELS 3 Zrotation Yrotation Xrotation
			JOINT RightLeg
			{
				OFFSET -2.542530 -6.985550 0.000000
				CHANNELS 3 Zrotation Yrotation Xrotation
				JOINT RightFoot
				{
					OFFSET -2.568260 -7.056230 0.000000
					CHANNELS 3 Zrotation Yrotation Xrotation
					JOINT RightToeBase
					{
						OFFSET -0.164730 -0.452590 2.363150
						CHANNELS 3 Zrotation Yrotation Xrotation
						End Site
						{
							OFFSET 0.000000 0.000000 0.000000
						}
					}
				}
			}
		}
	}
}
MOTION
Frames: 16
Frame Time: 0.008333
2.983886 17.197747 0.663846 119.488994 -87.242860 -112.641813 -8.599412 2.479795 -1.145988 -16.620859 23.640127 -34.340727 -2.626952 1.637019 39.323534 1.324872 6.270619 -13.107207 -0.859599 0.000000 -29.312200 11.582170 -2.137363 1.465808 5.677243 -12.204806 -17.536209 2.350437 -0.807246 22.060612 -0.757093 -1.078543 -10.902795 0.109800 0.000000 -63.215800
2.874076 17.146832 0.669233 127.314852 -86.693860 -120.123886 -8.620025 2.340802 -1.206907 -17.198881 23.474285 -35.121334 -2.597068 1.631060 39.847739 1.324640 6.171768 -13.256059 -0.871600 -0.000000 -29.551100 11.578361 -2.175912 1.449903 5.346705 -12.150426 -18.964588 2.374634 -1.109519 24.733386 -0.669098 -0.364173 -11.658756 0.123800 -0.000001 -65.142100
2.765561 17.085554 0.675791 133.613234 -86.064559 -126.073445 -8.668199 2.213208 -1.263086 -17.689266 23.249841 -35.963031 -2.542574 1.663613 40.691332 1.328345 6.133822 -13.346913 -0.878401 -0.000000 -29.836300 11.559096 -2.199103 1.428889 5.041219 -12.045428 -20.524829 2.376704 -1.430683 27.669903 -0.594157 0.269891 -12.451333 0.121600 0.000000 -66.909700
2.657926 17.012752 0.683735 138.840911 -85.368619 -130.941839 -8.737107 2.093602 -1.315214 -18.097123 22.988336 -36.887047 -2.465610 1.731481 41.852304 1.336613 6.146728 -13.421683 -0.885500 0.000000 -30.186000 11.529730 -2.210129 1.411333 4.770283 -11.874465 -22.211819 2.353111 -1.766086 30.840353 -0.535193 0.810059 -13.296628 0.106999 -0.000000 -68.462100
2.550084 16.927397 0.693158 143.310748 -84.616404 -135.028585 -8.821199 1.980812 -1.360691 -18.432226 22.709833 -37.916116 -2.370543 1.831278 43.320931 1.350447 6.196965 -13.535150 -0.899600 -0.000000 -30.608800 11.493091 -2.212594 1.407239 4.543777 -11.627086 -24.019192 2.302216 -2.109120 34.207084 -0.493211 1.255979 -14.215755 0.083900 -0.000001 -69.685800
2.441927 16.828737 0.704416 147.237535 -83.817681 -138.545264 -8.918261 1.872187 -1.399755 -18.693722 22.425388 -39.053608 -2.261619 1.960386 45.081851 1.372270 6.280344 -13.749484 -0.929800 0.000000 -31.102200 11.449647 -2.207707 1.418960 4.370448 -11.299743 -25.925167 2.221792 -2.453204 37.725081 -0.468604 1.605200 -15.206995 0.056000 0.000000 -70.647901
2.331702 16.716356 0.717128 150.704021 -82.991337 -141.556430 -9.018496 1.771448 -1.421664 -18.902620 22.134206 -40.317291 -2.144218 2.114438 47.107280 1.404335 6.388363 -14.124941 -0.984600 -0.000000 -31.663800 11.405334 -2.198212 1.456399 4.255267 -10.909952 -27.924699 2.115265 -2.790611 41.341405 -0.457352 1.889487 -16.284301 0.023900 0.000000 -71.266901
2.219749 16.590487 0.731196 153.720220 -82.160254 -144.081189 -9.114481 1.678835 -1.426220 -19.065001 21.819108 -41.669013 -2.020749 2.288492 49.355254 1.450797 6.533428 -14.710965 -1.074300 0.000000 -32.285200 11.368777 -2.181258 1.510149 4.183224 -10.500723 -29.978598 1.985194 -3.117634 45.001379 -0.453824 2.139249 -17.423744 -0.014000 -0.000000 -71.675600
2.104615 16.451810 0.746280 156.331354 -81.361603 -146.144592 -9.201663 1.596006 -1.398372 -19.196254 21.447125 -43.113521 -1.893164 2.477004 51.785939 1.515790 6.723448 -15.545380 -1.208100 0.000000 -32.953900 11.341161 -2.160933 1.585673 4.162040 -10.101285 -32.080244 1.838157 -3.429716 48.644670 -0.453785 2.384140 -18.613009 -0.060700 -0.000000 -71.941100
1.985908 16.301720 0.761981 158.527348 -80.635086 -147.730559 -9.275834 1.523472 -1.327615 -19.309703 20.970933 -44.623816 -1.761064 2.672981 54.346621 1.604623 6.978802 -16.643060 -1.395900 -0.000000 -33.650500 11.326699 -2.137897 1.677944 4.182439 -9.757910 -34.209469 1.680466 -3.725977 52.215235 -0.452085 2.653839 -19.823013 -0.121500 0.000000 -72.191001
1.864211 16.142453 0.777651 160.228926 -80.018602 -148.772381 -9.330782 1.462096 -1.212171 -19.423614 20.345398 -46.133374 -1.623437 2.866827 56.966291 1.722264 7.323668 -17.991605 -1.648000 -0.000000 -34.346200 11.335398 -2.109306 1.770661 4.208231 -9.537439 -36.323550 1.518878 -4.009253 55.659083 -0.441630 2.984739 -21.016543 -0.205800 0.000000 -72.491600
1.738529 15.976416 0.792963 161.476470 -79.552907 -149.284776 -9.368396 1.410966 -1.031948 -19.548828 19.508791 -47.649101 -1.478848 3.051386 59.594958 1.874419 7.777285 -19.566960 -1.974400 0.000001 -34.998499 11.362163 -2.079564 1.869423 4.251941 -9.453030 -38.433622 1.358878 -4.279451 58.930141 -0.423383 3.372910 -22.172294 -0.314800 -0.000001 -72.955400
1.610036 15.806981 0.807358 162.190075 -79.262166 -149.205842 -9.384351 1.369739 -0.789226 -19.696993 18.426979 -49.103029 -1.327250 3.217205 62.156476 2.064474 8.358361 -21.317804 -2.384700 0.000000 -35.554700 11.414487 -2.044558 1.957758 4.278344 -9.548348 -40.496015 1.205384 -4.540420 61.985032 -0.394900 3.825865 -23.261330 -0.452900 -0.000000 -73.573101
1.478382 15.637351 0.820558 162.381801 -79.161697 -148.534557 -9.378357 1.337449 -0.473334 -19.870417 17.068741 -50.489059 -1.169584 3.358208 64.594639 2.294690 9.073733 -23.190111 -2.885800 0.000000 -35.959800 11.489334 -2.005729 2.039798 4.293530 -9.813838 -42.510869 1.062405 -4.792544 64.790671 -0.361280 4.315535 -24.281530 -0.613500 0.000000 -74.375200
1.344644 15.471398 0.832517 162.021831 -79.247781 -147.255811 -9.348265 1.313012 -0.088257 -20.060921 15.432535 -51.766561 -1.008624 3.469893 66.844918 2.564023 9.924777 -25.117883 -3.480100 0.000000 -36.159100 11.587438 -1.959601 2.108411 4.287478 -10.241918 -44.441474 0.933438 -5.035727 67.314900 -0.327698 4.808773 -25.232552 -0.786600 -0.000000 -75.268400
1.208839 15.312711 0.843229 161.134900 -79.497085 -145.400227 -9.293174 1.296776 0.360476 -20.254006 13.554921 -52.918362 -0.849906 3.551258 68.854031 2.867290 10.891088 -27.045635 -4.162500 -0.000001 -36.105100 11.705260 -1.906091 2.167492 4.266727 -10.789370 -46.259886 0.822419 -5.266797 69.533461 -0.303065 5.258271 -26.140887 -0.956100 -0.000000 -76.184200
